<svg width="34" height="39" viewBox="0 0 34 39" fill="none" xmlns="http://www.w3.org/2000/svg">
<rect x="0.5" y="2.5" width="33" height="33" fill="black" stroke="black"/>
<mask id="path-2-outside-1_347_853" maskUnits="userSpaceOnUse" x="7" y="6" width="21" height="26" fill="black">
<rect fill="white" x="7" y="6" width="21" height="26"/>
<path d="M8.81818 31V7.72727H16.6818C18.5 7.72727 19.9924 8.03788 21.1591 8.65909C22.3258 9.27273 23.1894 10.1174 23.75 11.1932C24.3106 12.2689 24.5909 13.4924 24.5909 14.8636C24.5909 16.2348 24.3106 17.4508 23.75 18.5114C23.1894 19.572 22.3295 20.4053 21.1705 21.0114C20.0114 21.6098 18.5303 21.9091 16.7273 21.9091H10.3636V19.3636H16.6364C17.8788 19.3636 18.8788 19.1818 19.6364 18.8182C20.4015 18.4545 20.9545 17.9394 21.2955 17.2727C21.6439 16.5985 21.8182 15.7955 21.8182 14.8636C21.8182 13.9318 21.6439 13.1174 21.2955 12.4205C20.947 11.7235 20.3902 11.1856 19.625 10.8068C18.8598 10.4205 17.8485 10.2273 16.5909 10.2273H11.6364V31H8.81818ZM19.7727 20.5455L25.5 31H22.2273L16.5909 20.5455H19.7727Z"/>
</mask>
<path d="M8.81818 31V7.72727H16.6818C18.5 7.72727 19.9924 8.03788 21.1591 8.65909C22.3258 9.27273 23.1894 10.1174 23.75 11.1932C24.3106 12.2689 24.5909 13.4924 24.5909 14.8636C24.5909 16.2348 24.3106 17.4508 23.75 18.5114C23.1894 19.572 22.3295 20.4053 21.1705 21.0114C20.0114 21.6098 18.5303 21.9091 16.7273 21.9091H10.3636V19.3636H16.6364C17.8788 19.3636 18.8788 19.1818 19.6364 18.8182C20.4015 18.4545 20.9545 17.9394 21.2955 17.2727C21.6439 16.5985 21.8182 15.7955 21.8182 14.8636C21.8182 13.9318 21.6439 13.1174 21.2955 12.4205C20.947 11.7235 20.3902 11.1856 19.625 10.8068C18.8598 10.4205 17.8485 10.2273 16.5909 10.2273H11.6364V31H8.81818ZM19.7727 20.5455L25.5 31H22.2273L16.5909 20.5455H19.7727Z" fill="white"/>
<path d="M8.81818 31H7.81818V32H8.81818V31ZM8.81818 7.72727V6.72727H7.81818V7.72727H8.81818ZM21.1591 8.65909L20.6891 9.54177L20.6936 9.54413L21.1591 8.65909ZM23.75 11.1932L22.8632 11.6553L22.8632 11.6553L23.75 11.1932ZM23.75 18.5114L22.8659 18.0441L22.8659 18.0441L23.75 18.5114ZM21.1705 21.0114L21.6293 21.8999L21.6338 21.8975L21.1705 21.0114ZM10.3636 21.9091H9.36364V22.9091H10.3636V21.9091ZM10.3636 19.3636V18.3636H9.36364V19.3636H10.3636ZM19.6364 18.8182L19.2071 17.915L19.2036 17.9167L19.6364 18.8182ZM21.2955 17.2727L20.4071 16.8136L20.4051 16.8174L21.2955 17.2727ZM19.625 10.8068L19.1742 11.6995L19.1813 11.703L19.625 10.8068ZM11.6364 10.2273V9.22727H10.6364V10.2273H11.6364ZM11.6364 31V32H12.6364V31H11.6364ZM19.7727 20.5455L20.6497 20.065L20.3651 19.5455H19.7727V20.5455ZM25.5 31V32H27.1881L26.377 30.5195L25.5 31ZM22.2273 31L21.347 31.4746L21.6303 32H22.2273V31ZM16.5909 20.5455V19.5455H14.9157L15.7107 21.02L16.5909 20.5455ZM9.81818 31V7.72727H7.81818V31H9.81818ZM8.81818 8.72727H16.6818V6.72727H8.81818V8.72727ZM16.6818 8.72727C18.3946 8.72727 19.7112 9.02105 20.6891 9.54176L21.6291 7.77642C20.2737 7.05471 18.6054 6.72727 16.6818 6.72727V8.72727ZM20.6936 9.54413C21.6964 10.0716 22.4049 10.7759 22.8632 11.6553L24.6368 10.731C23.9739 9.45896 22.9551 8.47385 21.6246 7.77405L20.6936 9.54413ZM22.8632 11.6553C23.3402 12.5707 23.5909 13.6321 23.5909 14.8636H25.5909C25.5909 13.3527 25.281 11.9672 24.6368 10.731L22.8632 11.6553ZM23.5909 14.8636C23.5909 16.0955 23.3401 17.1469 22.8659 18.0441L24.6341 18.9787C25.2811 17.7546 25.5909 16.3742 25.5909 14.8636H23.5909ZM22.8659 18.0441C22.4085 18.9095 21.7037 19.6041 20.7071 20.1252L21.6338 21.8975C22.9553 21.2065 23.9703 20.2345 24.6341 18.9787L22.8659 18.0441ZM20.7117 20.1228C19.7381 20.6255 18.4284 20.9091 16.7273 20.9091V22.9091C18.6322 22.9091 20.2846 22.5942 21.6292 21.8999L20.7117 20.1228ZM16.7273 20.9091H10.3636V22.9091H16.7273V20.9091ZM11.3636 21.9091V19.3636H9.36364V21.9091H11.3636ZM10.3636 20.3636H16.6364V18.3636H10.3636V20.3636ZM16.6364 20.3636C17.9628 20.3636 19.1276 20.1716 20.0691 19.7197L19.2036 17.9167C18.63 18.192 17.7948 18.3636 16.6364 18.3636V20.3636ZM20.0656 19.7214C21.0021 19.2763 21.7317 18.6161 22.1858 17.728L20.4051 16.8174C20.1774 17.2627 19.8009 17.6328 19.2071 17.915L20.0656 19.7214ZM22.1838 17.7319C22.6205 16.887 22.8182 15.9194 22.8182 14.8636H20.8182C20.8182 15.6715 20.6674 16.31 20.4071 16.8136L22.1838 17.7319ZM22.8182 14.8636C22.8182 13.8067 22.6201 12.8337 22.1899 11.9732L20.401 12.8677C20.6678 13.4011 20.8182 14.0569 20.8182 14.8636H22.8182ZM22.1899 11.9732C21.7346 11.0627 21.0092 10.3762 20.0687 9.91062L19.1813 11.703C19.7711 11.995 20.1593 12.3843 20.401 12.8677L22.1899 11.9732ZM20.0757 9.91417C19.1209 9.43203 17.9375 9.22727 16.5909 9.22727V11.2273C17.7595 11.2273 18.5988 11.4089 19.1743 11.6995L20.0757 9.91417ZM16.5909 9.22727H11.6364V11.2273H16.5909V9.22727ZM10.6364 10.2273V31H12.6364V10.2273H10.6364ZM11.6364 30H8.81818V32H11.6364V30ZM18.8957 21.0259L24.623 31.4805L26.377 30.5195L20.6497 20.065L18.8957 21.0259ZM25.5 30H22.2273V32H25.5V30ZM23.1075 30.5254L17.4711 20.0709L15.7107 21.02L21.347 31.4746L23.1075 30.5254ZM16.5909 21.5455H19.7727V19.5455H16.5909V21.5455Z" fill="black" mask="url(#path-2-outside-1_347_853)"/>
</svg>
